{
  "source": "C:\\Users\\Peter\\Desktop\\stuff\\MIUN\\quantitative_research\\video_compression\\videos\\BVI-HD\\BVI-HD_CDVL_videos\\ORIG\\Surfers_1920x1080_30fps.mp4",
  "output": "C:\\Users\\Peter\\Desktop\\stuff\\MIUN\\quantitative_research\\video_compression\\compressed_videos\\BVI-HD\\hevc\\2\\Surfers_1920x1080_30fps_hevc.mp4",
  "codec": "hevc",
  "ok": "Input #0, mov,mp4,m4a,3gp,3g2,mj2, from 'C:\\Users\\Peter\\Desktop\\stuff\\MIUN\\quantitative_research\\video_compression\\videos\\BVI-HD\\BVI-HD_CDVL_videos\\ORIG\\Surfers_1920x1080_30fps.mp4':\n  Metadata:\n    major_brand     : isom\n    minor_version   : 512\n    compatible_brands: isomiso2avc1mp41\n    encoder         : Lavf54.28.101\n  Duration: 00:00:05.00, start: 0.000000, bitrate: 232762 kb/s\n  Stream #0:0[0x1](und): Video: h264 (High 4:4:4 Predictive) (avc1 / 0x31637661), yuv420p(progressive), 1920x1080, 232759 kb/s, 30 fps, 30 tbr, 30 tbn (default)\n    Metadata:\n      handler_name    : VideoHandler\n      vendor_id       : [0][0][0][0]\n[out#0/mp4 @ 000001ff52b3abc0] Codec AVOption b:a (set bitrate (in bits/s)) has not been used for any stream. The most likely reason is either wrong type (e.g. a video option with no video streams) or that it is a private option of some decoder which was not actually used for any stream.\nStream mapping:\n  Stream #0:0 -> #0:0 (h264 (native) -> hevc (libx265))\nPress [q] to stop, [?] for help\n[libx265 @ 000001ff530da480] Unknown option: \"aq-mode.\nx265 [info]: HEVC encoder version 4.1+190-8f11c33ac\nx265 [info]: build info [Windows][GCC 15.1.0][64 bit] 10bit\nx265 [info]: using cpu capabilities: MMX2 SSE2Fast LZCNT SSSE3 SSE4.2 AVX FMA3 BMI2 AVX2\nx265 [info]: Main 10 profile, Level-4 (Main tier)\nx265 [info]: Thread pool created using 12 threads\nx265 [info]: Slices                              : 1\nx265 [info]: frame threads / pool features       : 3 / wpp(17 rows)\nx265 [info]: Coding QT: max CU size, min CU size : 64 / 8\nx265 [info]: Residual QT: max TU size, max depth : 32 / 1 inter / 1 intra\nx265 [info]: ME / range / subpel / merge         : star / 57 / 3 / 3\nx265 [info]: Keyframe min / max / scenecut / bias  : 25 / 250 / 40 / 5.00 \nx265 [info]: Lookahead / bframes / badapt        : 25 / 4 / 2\nx265 [info]: b-pyramid / weightp / weightb       : 1 / 1 / 0\nx265 [info]: References / ref-limit  cu / depth  : 4 / on / on\nx265 [info]: AQ: mode / str / qg-size / cu-tree  : 2 / 1.0 / 32 / 1\nx265 [info]: Rate Control / qCompress            : ABR-2000 kbps / 0.60\nx265 [info]: VBV/HRD buffer / max-rate / init    : 2000 / 2000 / 0.750\nx265 [info]: tools: rect limit-modes rd=4 psy-rd=2.00 rdoq=2 psy-rdoq=1.00\nx265 [info]: tools: rskip mode=1 signhide tmvp strong-intra-smoothing lslices=4\nx265 [info]: tools: deblock sao dhdr10-info\nOutput #0, mp4, to 'C:\\Users\\Peter\\Desktop\\stuff\\MIUN\\quantitative_research\\video_compression\\compressed_videos\\BVI-HD\\hevc\\2\\Surfers_1920x1080_30fps_hevc.mp4':\n  Metadata:\n    major_brand     : isom\n    minor_version   : 512\n    compatible_brands: isomiso2avc1mp41\n    encoder         : Lavf62.3.100\n  Stream #0:0(und): Video: hevc (hev1 / 0x31766568), yuv420p10le(tv, progressive), 1920x1080, q=2-31, 2000 kb/s, 30 fps, 15360 tbn (default)\n    Metadata:\n      encoder         : Lavc62.11.100 libx265\n      handler_name    : VideoHandler\n      vendor_id       : [0][0][0][0]\n    Side data:\n      cpb: bitrate max/min/avg: 2000000/0/2000000 buffer size: 2000000 vbv_delay: N/A\nframe=    0 fps=0.0 q=0.0 size=       0KiB time=N/A bitrate=N/A speed=N/A elapsed=0:00:00.51    \nframe=    0 fps=0.0 q=0.0 size=       0KiB time=N/A bitrate=N/A speed=N/A elapsed=0:00:01.09    \nframe=    0 fps=0.0 q=0.0 size=       0KiB time=N/A bitrate=N/A speed=N/A elapsed=0:00:01.60    \nframe=    0 fps=0.0 q=0.0 size=       0KiB time=N/A bitrate=N/A speed=N/A elapsed=0:00:02.13    \nframe=    0 fps=0.0 q=0.0 size=       0KiB time=N/A bitrate=N/A speed=N/A elapsed=0:00:02.65    \nframe=    0 fps=0.0 q=0.0 size=       0KiB time=N/A bitrate=N/A speed=N/A elapsed=0:00:03.17    \nframe=    0 fps=0.0 q=0.0 size=       0KiB time=N/A bitrate=N/A speed=N/A elapsed=0:00:03.68    \nframe=    0 fps=0.0 q=0.0 size=       0KiB time=N/A bitrate=N/A speed=N/A elapsed=0:00:04.20    \nframe=    0 fps=0.0 q=0.0 size=       0KiB time=N/A bitrate=N/A speed=N/A elapsed=0:00:04.70    \nframe=    0 fps=0.0 q=0.0 size=       0KiB time=N/A bitrate=N/A speed=N/A elapsed=0:00:05.22    \nframe=    0 fps=0.0 q=0.0 size=       0KiB time=N/A bitrate=N/A speed=N/A elapsed=0:00:05.74    \nframe=    1 fps=0.2 q=37.8 size=       0KiB time=-00:00:00.03 bitrate=N/A speed=N/A elapsed=0:00:06.26    \nframe=    1 fps=0.1 q=37.8 size=       0KiB time=-00:00:00.03 bitrate=N/A speed=N/A elapsed=0:00:06.78    \nframe=    1 fps=0.1 q=37.8 size=       0KiB time=-00:00:00.03 bitrate=N/A speed=N/A elapsed=0:00:07.31    \nframe=    2 fps=0.3 q=41.9 size=       0KiB time=00:00:00.00 bitrate=N/A speed=   0x elapsed=0:00:07.83    \nframe=    3 fps=0.4 q=43.8 size=       0KiB time=00:00:00.03 bitrate=  10.6kbits/s speed=0.00398x elapsed=0:00:08.38    \nframe=    3 fps=0.3 q=43.8 size=       0KiB time=00:00:00.03 bitrate=  10.6kbits/s speed=0.00374x elapsed=0:00:08.90    \nframe=    4 fps=0.4 q=45.8 size=       0KiB time=00:00:00.06 bitrate=   5.3kbits/s speed=0.00707x elapsed=0:00:09.42    \nframe=    5 fps=0.5 q=44.8 size=       0KiB time=00:00:00.10 bitrate=   3.5kbits/s speed=0.0101x elapsed=0:00:09.93    \nframe=    5 fps=0.5 q=44.8 size=       0KiB time=00:00:00.10 bitrate=   3.5kbits/s speed=0.00955x elapsed=0:00:10.47    \nframe=    5 fps=0.5 q=44.8 size=       0KiB time=00:00:00.10 bitrate=   3.5kbits/s speed=0.00907x elapsed=0:00:11.02    \nframe=    5 fps=0.4 q=44.8 size=       0KiB time=00:00:00.10 bitrate=   3.5kbits/s speed=0.00864x elapsed=0:00:11.57    \nframe=    6 fps=0.5 q=39.0 size=       0KiB time=00:00:00.13 bitrate=   2.6kbits/s speed=0.011x elapsed=0:00:12.14    \nframe=    6 fps=0.5 q=39.0 size=       0KiB time=00:00:00.13 bitrate=   2.6kbits/s speed=0.0105x elapsed=0:00:12.66    \nframe=    7 fps=0.5 q=41.6 size=       0KiB time=00:00:00.16 bitrate=   2.1kbits/s speed=0.0126x elapsed=0:00:13.19    \nframe=    7 fps=0.5 q=41.6 size=       0KiB time=00:00:00.16 bitrate=   2.1kbits/s speed=0.0121x elapsed=0:00:13.72    \nframe=    7 fps=0.5 q=41.6 size=       0KiB time=00:00:00.16 bitrate=   2.1kbits/s speed=0.0117x elapsed=0:00:14.27    \nframe=    8 fps=0.5 q=41.5 size=       0KiB time=00:00:00.20 bitrate=   1.8kbits/s speed=0.0135x elapsed=0:00:14.81    \nframe=    8 fps=0.5 q=41.5 size=       0KiB time=00:00:00.20 bitrate=   1.8kbits/s speed=0.013x elapsed=0:00:15.32    \nframe=    8 fps=0.5 q=41.5 size=       0KiB time=00:00:00.20 bitrate=   1.8kbits/s speed=0.0126x elapsed=0:00:15.85    \nframe=    9 fps=0.5 q=40.7 size=       0KiB time=00:00:00.23 bitrate=   1.5kbits/s speed=0.0143x elapsed=0:00:16.37    \nframe=    9 fps=0.5 q=40.7 size=       0KiB time=00:00:00.23 bitrate=   1.5kbits/s speed=0.0138x elapsed=0:00:16.88    \nframe=    9 fps=0.5 q=40.7 size=       0KiB time=00:00:00.23 bitrate=   1.5kbits/s speed=0.0134x elapsed=0:00:17.39    \nframe=    9 fps=0.5 q=40.7 size=       0KiB time=00:00:00.23 bitrate=   1.5kbits/s speed=0.013x elapsed=0:00:17.93    \nframe=    9 fps=0.5 q=40.7 size=       0KiB time=00:00:00.23 bitrate=   1.5kbits/s speed=0.0126x elapsed=0:00:18.45    \nframe=    9 fps=0.5 q=40.7 size=       0KiB time=00:00:00.23 bitrate=   1.5kbits/s speed=0.0123x elapsed=0:00:18.97    \nframe=    9 fps=0.5 q=40.7 size=       0KiB time=00:00:00.23 bitrate=   1.5kbits/s speed=0.012x elapsed=0:00:19.49    \nframe=    9 fps=0.4 q=40.7 size=       0KiB time=00:00:00.23 bitrate=   1.5kbits/s speed=0.0117x elapsed=0:00:20.02    \nframe=   10 fps=0.5 q=36.3 size=       0KiB time=00:00:00.26 bitrate=   1.3kbits/s speed=0.013x elapsed=0:00:20.56    \nframe=   10 fps=0.5 q=36.3 size=       0KiB time=00:00:00.26 bitrate=   1.3kbits/s speed=0.0126x elapsed=0:00:21.09    \nframe=   11 fps=0.5 q=40.4 size=       0KiB time=00:00:00.30 bitrate=   1.2kbits/s speed=0.0139x elapsed=0:00:21.62    \nframe=   11 fps=0.5 q=40.4 size=       0KiB time=00:00:00.30 bitrate=   1.2kbits/s speed=0.0136x elapsed=0:00:22.13    \nframe=   12 fps=0.5 q=41.1 size=       0KiB time=00:00:00.33 bitrate=   1.1kbits/s speed=0.0147x elapsed=0:00:22.65    \nframe=   12 fps=0.5 q=41.1 size=       0KiB time=00:00:00.33 bitrate=   1.1kbits/s speed=0.0144x elapsed=0:00:23.19    \nframe=   12 fps=0.5 q=41.1 size=       0KiB time=00:00:00.33 bitrate=   1.1kbits/s speed=0.014x elapsed=0:00:23.72    \nframe=   13 fps=0.5 q=40.7 size=       0KiB time=00:00:00.36 bitrate=   1.0kbits/s speed=0.0151x elapsed=0:00:24.23    \nframe=   13 fps=0.5 q=40.7 size=       0KiB time=00:00:00.36 bitrate=   1.0kbits/s speed=0.0148x elapsed=0:00:24.76    \nframe=   13 fps=0.5 q=40.7 size=       0KiB time=00:00:00.36 bitrate=   1.0kbits/s speed=0.0145x elapsed=0:00:25.30    \nframe=   13 fps=0.5 q=40.7 size=       0KiB time=00:00:00.36 bitrate=   1.0kbits/s speed=0.0142x elapsed=0:00:25.82    \nframe=   14 fps=0.5 q=40.9 size=       0KiB time=00:00:00.40 bitrate=   0.9kbits/s speed=0.0152x elapsed=0:00:26.34    \nframe=   14 fps=0.5 q=40.9 size=       0KiB time=00:00:00.40 bitrate=   0.9kbits/s speed=0.0149x elapsed=0:00:26.86    \nframe=   14 fps=0.5 q=40.9 size=       0KiB time=00:00:00.40 bitrate=   0.9kbits/s speed=0.0146x elapsed=0:00:27.36    \nframe=   14 fps=0.5 q=40.9 size=       0KiB time=00:00:00.40 bitrate=   0.9kbits/s speed=0.0143x elapsed=0:00:27.88    \nframe=   15 fps=0.5 q=37.0 size=       0KiB time=00:00:00.43 bitrate=   0.8kbits/s speed=0.0153x elapsed=0:00:28.40    \nframe=   15 fps=0.5 q=37.0 size=       0KiB time=00:00:00.43 bitrate=   0.8kbits/s speed=0.015x elapsed=0:00:28.97    \nframe=   15 fps=0.5 q=37.0 size=       0KiB time=00:00:00.43 bitrate=   0.8kbits/s speed=0.0147x elapsed=0:00:29.55    \nframe=   15 fps=0.5 q=37.0 size=       0KiB time=00:00:00.43 bitrate=   0.8kbits/s speed=0.0144x elapsed=0:00:30.06    \nframe=   16 fps=0.5 q=38.8 size=       0KiB time=00:00:00.46 bitrate=   0.8kbits/s speed=0.0153x elapsed=0:00:30.58    \nframe=   16 fps=0.5 q=38.8 size=       0KiB time=00:00:00.46 bitrate=   0.8kbits/s speed=0.015x elapsed=0:00:31.10    \nframe=   17 fps=0.5 q=40.8 size=       0KiB time=00:00:00.50 bitrate=   0.7kbits/s speed=0.0158x elapsed=0:00:31.62    \nframe=   17 fps=0.5 q=40.8 size=       0KiB time=00:00:00.50 bitrate=   0.7kbits/s speed=0.0155x elapsed=0:00:32.17    \nframe=   17 fps=0.5 q=40.8 size=       0KiB time=00:00:00.50 bitrate=   0.7kbits/s speed=0.0153x elapsed=0:00:32.67    \nframe=   17 fps=0.5 q=40.8 size=       0KiB time=00:00:00.50 bitrate=   0.7kbits/s speed=0.0151x elapsed=0:00:33.19    \nframe=   18 fps=0.5 q=41.1 size=       0KiB time=00:00:00.53 bitrate=   0.7kbits/s speed=0.0158x elapsed=0:00:33.72    \nframe=   18 fps=0.5 q=41.1 size=       0KiB time=00:00:00.53 bitrate=   0.7kbits/s speed=0.0156x elapsed=0:00:34.26    \nframe=   19 fps=0.5 q=37.9 size=       0KiB time=00:00:00.56 bitrate=   0.6kbits/s speed=0.0163x elapsed=0:00:34.78    \nframe=   20 fps=0.6 q=39.2 size=       0KiB time=00:00:00.60 bitrate=   0.6kbits/s speed=0.017x elapsed=0:00:35.31    \nframe=   20 fps=0.6 q=39.2 size=       0KiB time=00:00:00.60 bitrate=   0.6kbits/s speed=0.0167x elapsed=0:00:35.85    \nframe=   21 fps=0.6 q=41.2 size=       0KiB time=00:00:00.63 bitrate=   0.6kbits/s speed=0.0174x elapsed=0:00:36.36    \nframe=   21 fps=0.6 q=41.2 size=       0KiB time=00:00:00.63 bitrate=   0.6kbits/s speed=0.0172x elapsed=0:00:36.87    \nframe=   21 fps=0.6 q=41.2 size=       0KiB time=00:00:00.63 bitrate=   0.6kbits/s speed=0.0169x elapsed=0:00:37.39    \nframe=   22 fps=0.6 q=41.4 size=       0KiB time=00:00:00.66 bitrate=   0.5kbits/s speed=0.0176x elapsed=0:00:37.91    \nframe=   22 fps=0.6 q=41.4 size=       0KiB time=00:00:00.66 bitrate=   0.5kbits/s speed=0.0173x elapsed=0:00:38.42    \nframe=   22 fps=0.6 q=41.4 size=       0KiB time=00:00:00.66 bitrate=   0.5kbits/s speed=0.0171x elapsed=0:00:38.97    \nframe=   23 fps=0.6 q=37.3 size=       0KiB time=00:00:00.70 bitrate=   0.5kbits/s speed=0.0177x elapsed=0:00:39.48    \nframe=   23 fps=0.6 q=37.3 size=       0KiB time=00:00:00.70 bitrate=   0.5kbits/s speed=0.0175x elapsed=0:00:40.02    \nframe=   24 fps=0.6 q=39.4 size=       0KiB time=00:00:00.73 bitrate=   0.5kbits/s speed=0.0181x elapsed=0:00:40.59    \nframe=   24 fps=0.6 q=39.4 size=       0KiB time=00:00:00.73 bitrate=   0.5kbits/s speed=0.0178x elapsed=0:00:41.12    \nframe=   24 fps=0.6 q=39.4 size=       0KiB time=00:00:00.73 bitrate=   0.5kbits/s speed=0.0176x elapsed=0:00:41.65    \nframe=   25 fps=0.6 q=41.4 size=       0KiB time=00:00:00.76 bitrate=   0.5kbits/s speed=0.0182x elapsed=0:00:42.16    \nframe=   25 fps=0.6 q=41.4 size=       0KiB time=00:00:00.76 bitrate=   0.5kbits/s speed=0.018x elapsed=0:00:42.70    \nframe=   25 fps=0.6 q=41.4 size=       0KiB time=00:00:00.76 bitrate=   0.5kbits/s speed=0.0177x elapsed=0:00:43.22    \nframe=   26 fps=0.6 q=41.5 size=       0KiB time=00:00:00.80 bitrate=   0.4kbits/s speed=0.0183x elapsed=0:00:43.74    \nframe=   26 fps=0.6 q=41.5 size=       0KiB time=00:00:00.80 bitrate=   0.4kbits/s speed=0.0181x elapsed=0:00:44.26    \nframe=   26 fps=0.6 q=41.5 size=       0KiB time=00:00:00.80 bitrate=   0.4kbits/s speed=0.0179x elapsed=0:00:44.80    \nframe=   27 fps=0.6 q=38.1 size=       0KiB time=00:00:00.83 bitrate=   0.4kbits/s speed=0.0184x elapsed=0:00:45.32    \nframe=   28 fps=0.6 q=39.9 size=       0KiB time=00:00:00.86 bitrate=   0.4kbits/s speed=0.0189x elapsed=0:00:45.85    \nframe=   28 fps=0.6 q=39.9 size=       0KiB time=00:00:00.86 bitrate=   0.4kbits/s speed=0.0187x elapsed=0:00:46.37    \nframe=   29 fps=0.6 q=41.8 size=       0KiB time=00:00:00.90 bitrate=   0.4kbits/s speed=0.0192x elapsed=0:00:46.89    \nframe=   29 fps=0.6 q=41.8 size=       0KiB time=00:00:00.90 bitrate=   0.4kbits/s speed=0.019x elapsed=0:00:47.41    \nframe=   30 fps=0.6 q=41.6 size=       0KiB time=00:00:00.93 bitrate=   0.4kbits/s speed=0.0195x elapsed=0:00:47.92    \nframe=   30 fps=0.6 q=41.6 size=       0KiB time=00:00:00.93 bitrate=   0.4kbits/s speed=0.0193x elapsed=0:00:48.46    \nframe=   30 fps=0.6 q=41.6 size=       0KiB time=00:00:00.93 bitrate=   0.4kbits/s speed=0.019x elapsed=0:00:49.00    \nframe=   31 fps=0.6 q=36.7 size=       0KiB time=00:00:00.96 bitrate=   0.4kbits/s speed=0.0195x elapsed=0:00:49.52    \nframe=   32 fps=0.6 q=39.5 size=       0KiB time=00:00:01.00 bitrate=   0.4kbits/s speed=0.02x elapsed=0:00:50.06    \nframe=   32 fps=0.6 q=39.5 size=       0KiB time=00:00:01.00 bitrate=   0.4kbits/s speed=0.0198x elapsed=0:00:50.57    \nframe=   32 fps=0.6 q=39.5 size=       0KiB time=00:00:01.00 bitrate=   0.4kbits/s speed=0.0196x elapsed=0:00:51.09    \nframe=   32 fps=0.6 q=39.5 size=       0KiB time=00:00:01.00 bitrate=   0.4kbits/s speed=0.0194x elapsed=0:00:51.61    \nframe=   33 fps=0.6 q=41.2 size=     256KiB time=00:00:01.03 bitrate=2029.8kbits/s speed=0.0198x elapsed=0:00:52.13    \nframe=   34 fps=0.6 q=41.6 size=     256KiB time=00:00:01.06 bitrate=1966.4kbits/s speed=0.0202x elapsed=0:00:52.68    \nframe=   34 fps=0.6 q=41.6 size=     256KiB time=00:00:01.06 bitrate=1966.4kbits/s speed=0.02x elapsed=0:00:53.25    \nframe=   34 fps=0.6 q=41.6 size=     256KiB time=00:00:01.06 bitrate=1966.4kbits/s speed=0.0198x elapsed=0:00:53.77    \nframe=   34 fps=0.6 q=41.6 size=     256KiB time=00:00:01.06 bitrate=1966.4kbits/s speed=0.0196x elapsed=0:00:54.29    \nframe=   34 fps=0.6 q=41.6 size=     256KiB time=00:00:01.06 bitrate=1966.4kbits/s speed=0.0195x elapsed=0:00:54.83    \nframe=   34 fps=0.6 q=41.6 size=     256KiB time=00:00:01.06 bitrate=1966.4kbits/s speed=0.0193x elapsed=0:00:55.38    \nframe=   34 fps=0.6 q=41.6 size=     256KiB time=00:00:01.06 bitrate=1966.4kbits/s speed=0.0191x elapsed=0:00:55.91    \nframe=   34 fps=0.6 q=41.6 size=     256KiB time=00:00:01.06 bitrate=1966.4kbits/s speed=0.0189x elapsed=0:00:56.45    \nframe=   35 fps=0.6 q=36.9 size=     256KiB time=00:00:01.10 bitrate=1906.8kbits/s speed=0.0193x elapsed=0:00:56.98    \nframe=   36 fps=0.6 q=39.4 size=     256KiB time=00:00:01.13 bitrate=1850.7kbits/s speed=0.0197x elapsed=0:00:57.49    \nframe=   36 fps=0.6 q=39.4 size=     256KiB time=00:00:01.13 bitrate=1850.7kbits/s speed=0.0195x elapsed=0:00:58.04    \nframe=   37 fps=0.6 q=41.0 size=     256KiB time=00:00:01.16 bitrate=1797.9kbits/s speed=0.0199x elapsed=0:00:58.56    \nframe=   37 fps=0.6 q=41.0 size=     256KiB time=00:00:01.16 bitrate=1797.9kbits/s speed=0.0197x elapsed=0:00:59.11    \nframe=   37 fps=0.6 q=41.0 size=     256KiB time=00:00:01.16 bitrate=1797.9kbits/s speed=0.0196x elapsed=0:00:59.64    \nframe=   37 fps=0.6 q=41.0 size=     256KiB time=00:00:01.16 bitrate=1797.9kbits/s speed=0.0194x elapsed=0:01:00.16    \nframe=   37 fps=0.6 q=41.0 size=     256KiB time=00:00:01.16 bitrate=1797.9kbits/s speed=0.0192x elapsed=0:01:00.67    \nframe=   37 fps=0.6 q=41.0 size=     256KiB time=00:00:01.16 bitrate=1797.9kbits/s speed=0.0191x elapsed=0:01:01.24    \nframe=   37 fps=0.6 q=41.0 size=     256KiB time=00:00:01.16 bitrate=1797.9kbits/s speed=0.0189x elapsed=0:01:01.77    \nframe=   38 fps=0.6 q=40.7 size=     256KiB time=00:00:01.20 bitrate=1747.9kbits/s speed=0.0193x elapsed=0:01:02.31    \nframe=   38 fps=0.6 q=40.7 size=     256KiB time=00:00:01.20 bitrate=1747.9kbits/s speed=0.0191x elapsed=0:01:02.83    \nframe=   39 fps=0.6 q=36.7 size=     256KiB time=00:00:01.23 bitrate=1700.7kbits/s speed=0.0195x elapsed=0:01:03.35    \nframe=   39 fps=0.6 q=36.7 size=     256KiB time=00:00:01.23 bitrate=1700.7kbits/s speed=0.0193x elapsed=0:01:03.90    \nframe=   40 fps=0.6 q=38.9 size=     256KiB time=00:00:01.26 bitrate=1655.9kbits/s speed=0.0197x elapsed=0:01:04.42    \nframe=   40 fps=0.6 q=38.9 size=     256KiB time=00:00:01.26 bitrate=1655.9kbits/s speed=0.0195x elapsed=0:01:04.96    \nframe=   40 fps=0.6 q=38.9 size=     256KiB time=00:00:01.26 bitrate=1655.9kbits/s speed=0.0193x elapsed=0:01:05.47    \nframe=   40 fps=0.6 q=38.9 size=     256KiB time=00:00:01.26 bitrate=1655.9kbits/s speed=0.0192x elapsed=0:01:05.99    \nframe=   40 fps=0.6 q=38.9 size=     256KiB time=00:00:01.26 bitrate=1655.9kbits/s speed=0.019x elapsed=0:01:06.51    \nframe=   40 fps=0.6 q=38.9 size=     256KiB time=00:00:01.26 bitrate=1655.9kbits/s speed=0.0189x elapsed=0:01:07.02    \nframe=   40 fps=0.6 q=38.9 size=     256KiB time=00:00:01.26 bitrate=1655.9kbits/s speed=0.0188x elapsed=0:01:07.55    \nframe=   40 fps=0.6 q=38.9 size=     256KiB time=00:00:01.26 bitrate=1655.9kbits/s speed=0.0186x elapsed=0:01:08.08    \nframe=   40 fps=0.6 q=38.9 size=     256KiB time=00:00:01.26 bitrate=1655.9kbits/s speed=0.0185x elapsed=0:01:08.60    \nframe=   40 fps=0.6 q=38.9 size=     256KiB time=00:00:01.26 bitrate=1655.9kbits/s speed=0.0183x elapsed=0:01:09.12    \nframe=   41 fps=0.6 q=41.3 size=     256KiB time=00:00:01.30 bitrate=1613.5kbits/s speed=0.0187x elapsed=0:01:09.67    \nframe=   41 fps=0.6 q=41.3 size=     256KiB time=00:00:01.30 bitrate=1613.5kbits/s speed=0.0185x elapsed=0:01:10.22    \nframe=   42 fps=0.6 q=38.5 size=     256KiB time=00:00:01.33 bitrate=1573.1kbits/s speed=0.0188x elapsed=0:01:10.74    \nframe=   43 fps=0.6 q=39.1 size=     256KiB time=00:00:01.36 bitrate=1534.8kbits/s speed=0.0192x elapsed=0:01:11.27    \nframe=   43 fps=0.6 q=39.1 size=     256KiB time=00:00:01.36 bitrate=1534.8kbits/s speed=0.019x elapsed=0:01:11.79    \nframe=   43 fps=0.6 q=39.1 size=     256KiB time=00:00:01.36 bitrate=1534.8kbits/s speed=0.0189x elapsed=0:01:12.30    \nframe=   43 fps=0.6 q=39.1 size=     256KiB time=00:00:01.36 bitrate=1534.8kbits/s speed=0.0188x elapsed=0:01:12.83    \nframe=   44 fps=0.6 q=41.3 size=     256KiB time=00:00:01.40 bitrate=1498.2kbits/s speed=0.0191x elapsed=0:01:13.37    \nframe=   44 fps=0.6 q=41.3 size=     256KiB time=00:00:01.40 bitrate=1498.2kbits/s speed=0.0189x elapsed=0:01:13.90    \nframe=   45 fps=0.6 q=41.4 size=     256KiB time=00:00:01.43 bitrate=1463.4kbits/s speed=0.0193x elapsed=0:01:14.41    \nframe=   45 fps=0.6 q=41.4 size=     256KiB time=00:00:01.43 bitrate=1463.4kbits/s speed=0.0191x elapsed=0:01:14.95    \nframe=   45 fps=0.6 q=41.4 size=     256KiB time=00:00:01.43 bitrate=1463.4kbits/s speed=0.019x elapsed=0:01:15.47    \nframe=   45 fps=0.6 q=41.4 size=     256KiB time=00:00:01.43 bitrate=1463.4kbits/s speed=0.0189x elapsed=0:01:16.01    \nframe=   46 fps=0.6 q=36.9 size=     256KiB time=00:00:01.46 bitrate=1430.1kbits/s speed=0.0192x elapsed=0:01:16.53    \nframe=   47 fps=0.6 q=39.6 size=     256KiB time=00:00:01.50 bitrate=1398.3kbits/s speed=0.0195x elapsed=0:01:17.06    \nframe=   47 fps=0.6 q=39.6 size=     256KiB time=00:00:01.50 bitrate=1398.3kbits/s speed=0.0193x elapsed=0:01:17.59    \nframe=   47 fps=0.6 q=39.6 size=     256KiB time=00:00:01.50 bitrate=1398.3kbits/s speed=0.0192x elapsed=0:01:18.13    \nframe=   47 fps=0.6 q=39.6 size=     256KiB time=00:00:01.50 bitrate=1398.3kbits/s speed=0.0191x elapsed=0:01:18.64    \nframe=   47 fps=0.6 q=39.6 size=     256KiB time=00:00:01.50 bitrate=1398.3kbits/s speed=0.0189x elapsed=0:01:19.17    \nframe=   48 fps=0.6 q=41.6 size=     256KiB time=00:00:01.53 bitrate=1367.9kbits/s speed=0.0192x elapsed=0:01:19.70    \nframe=   48 fps=0.6 q=41.6 size=     256KiB time=00:00:01.53 bitrate=1367.9kbits/s speed=0.0191x elapsed=0:01:20.21    \nframe=   48 fps=0.6 q=41.6 size=     256KiB time=00:00:01.53 bitrate=1367.9kbits/s speed=0.019x elapsed=0:01:20.72    \nframe=   49 fps=0.6 q=41.5 size=     256KiB time=00:00:01.56 bitrate=1338.8kbits/s speed=0.0193x elapsed=0:01:21.25    \nframe=   49 fps=0.6 q=41.5 size=     256KiB time=00:00:01.56 bitrate=1338.8kbits/s speed=0.0192x elapsed=0:01:21.77    \nframe=   49 fps=0.6 q=41.5 size=     256KiB time=00:00:01.56 bitrate=1338.8kbits/s speed=0.019x elapsed=0:01:22.29    \nframe=   50 fps=0.6 q=38.0 size=     256KiB time=00:00:01.60 bitrate=1310.9kbits/s speed=0.0193x elapsed=0:01:22.82    \nframe=   51 fps=0.6 q=39.9 size=     256KiB time=00:00:01.63 bitrate=1284.2kbits/s speed=0.0196x elapsed=0:01:23.33    \nframe=   51 fps=0.6 q=39.9 size=     256KiB time=00:00:01.63 bitrate=1284.2kbits/s speed=0.0195x elapsed=0:01:23.86    \nframe=   51 fps=0.6 q=39.9 size=     256KiB time=00:00:01.63 bitrate=1284.2kbits/s speed=0.0194x elapsed=0:01:24.39    \nframe=   51 fps=0.6 q=39.9 size=     256KiB time=00:00:01.63 bitrate=1284.2kbits/s speed=0.0192x elapsed=0:01:24.91    \nframe=   52 fps=0.6 q=41.6 size=     256KiB time=00:00:01.66 bitrate=1258.5kbits/s speed=0.0195x elapsed=0:01:25.43    \nframe=   52 fps=0.6 q=41.6 size=     256KiB time=00:00:01.66 bitrate=1258.5kbits/s speed=0.0194x elapsed=0:01:25.95    \nframe=   52 fps=0.6 q=41.6 size=     256KiB time=00:00:01.66 bitrate=1258.5kbits/s speed=0.0193x elapsed=0:01:26.46    \nframe=   53 fps=0.6 q=41.6 size=     256KiB time=00:00:01.70 bitrate=1233.8kbits/s speed=0.0195x elapsed=0:01:26.98    \nframe=   53 fps=0.6 q=41.6 size=     256KiB time=00:00:01.70 bitrate=1233.8kbits/s speed=0.0194x elapsed=0:01:27.50    \nframe=   54 fps=0.6 q=41.5 size=     256KiB time=00:00:01.73 bitrate=1210.1kbits/s speed=0.0197x elapsed=0:01:28.01    \nframe=   54 fps=0.6 q=41.5 size=     256KiB time=00:00:01.73 bitrate=1210.1kbits/s speed=0.0196x elapsed=0:01:28.52    \nframe=   54 fps=0.6 q=41.5 size=     256KiB time=00:00:01.73 bitrate=1210.1kbits/s speed=0.0195x elapsed=0:01:29.05    \nframe=   55 fps=0.6 q=37.8 size=     256KiB time=00:00:01.76 bitrate=1187.3kbits/s speed=0.0197x elapsed=0:01:29.59    \nframe=   55 fps=0.6 q=37.8 size=     256KiB time=00:00:01.76 bitrate=1187.3kbits/s speed=0.0196x elapsed=0:01:30.11    \nframe=   56 fps=0.6 q=39.7 size=     256KiB time=00:00:01.80 bitrate=1165.3kbits/s speed=0.0199x elapsed=0:01:30.63    \nframe=   56 fps=0.6 q=39.7 size=     256KiB time=00:00:01.80 bitrate=1165.3kbits/s speed=0.0197x elapsed=0:01:31.14    \nframe=   56 fps=0.6 q=39.7 size=     256KiB time=00:00:01.80 bitrate=1165.3kbits/s speed=0.0196x elapsed=0:01:31.67    \nframe=   57 fps=0.6 q=41.6 size=     256KiB time=00:00:01.83 bitrate=1144.1kbits/s speed=0.0199x elapsed=0:01:32.21    \nframe=   57 fps=0.6 q=41.6 size=     256KiB time=00:00:01.83 bitrate=1144.1kbits/s speed=0.0198x elapsed=0:01:32.75    \nframe=   57 fps=0.6 q=41.6 size=     256KiB time=00:00:01.83 bitrate=1144.1kbits/s speed=0.0197x elapsed=0:01:33.26    \nframe=   57 fps=0.6 q=41.6 size=     256KiB time=00:00:01.83 bitrate=1144.1kbits/s speed=0.0195x elapsed=0:01:33.78    \nframe=   57 fps=0.6 q=41.6 size=     256KiB time=00:00:01.83 bitrate=1144.1kbits/s speed=0.0194x elapsed=0:01:34.30    \nframe=   58 fps=0.6 q=38.3 size=     256KiB time=00:00:01.86 bitrate=1123.7kbits/s speed=0.0197x elapsed=0:01:34.84    \nframe=   59 fps=0.6 q=39.7 size=     256KiB time=00:00:01.90 bitrate=1103.9kbits/s speed=0.0199x elapsed=0:01:35.37    \nframe=   60 fps=0.6 q=41.7 size=     256KiB time=00:00:01.93 bitrate=1084.9kbits/s speed=0.0202x elapsed=0:01:35.88    \nframe=   61 fps=0.6 q=41.6 size=     256KiB time=00:00:01.96 bitrate=1066.5kbits/s speed=0.0204x elapsed=0:01:36.39    \nframe=   61 fps=0.6 q=41.6 size=     256KiB time=00:00:01.96 bitrate=1066.5kbits/s speed=0.0203x elapsed=0:01:36.91    \nframe=   61 fps=0.6 q=41.6 size=     256KiB time=00:00:01.96 bitrate=1066.5kbits/s speed=0.0202x elapsed=0:01:37.43    \nframe=   62 fps=0.6 q=38.0 size=     256KiB time=00:00:02.00 bitrate=1048.8kbits/s speed=0.0204x elapsed=0:01:37.95    \nframe=   62 fps=0.6 q=38.0 size=     256KiB time=00:00:02.00 bitrate=1048.8kbits/s speed=0.0203x elapsed=0:01:38.47    \nframe=   62 fps=0.6 q=38.0 size=     256KiB time=00:00:02.00 bitrate=1048.8kbits/s speed=0.0202x elapsed=0:01:38.99    \nframe=   62 fps=0.6 q=38.0 size=     256KiB time=00:00:02.00 bitrate=1048.8kbits/s speed=0.0201x elapsed=0:01:39.53    \nframe=   62 fps=0.6 q=38.0 size=     256KiB time=00:00:02.00 bitrate=1048.8kbits/s speed=0.02x elapsed=0:01:40.06    \nframe=   63 fps=0.6 q=39.7 size=     512KiB time=00:00:02.03 bitrate=2062.9kbits/s speed=0.0202x elapsed=0:01:40.59    \nframe=   63 fps=0.6 q=39.7 size=     512KiB time=00:00:02.03 bitrate=2062.9kbits/s speed=0.0201x elapsed=0:01:41.18    \nframe=   63 fps=0.6 q=39.7 size=     512KiB time=00:00:02.03 bitrate=2062.9kbits/s speed=0.02x elapsed=0:01:41.72    \nframe=   63 fps=0.6 q=39.7 size=     512KiB time=00:00:02.03 bitrate=2062.9kbits/s speed=0.0199x elapsed=0:01:42.24    \nframe=   63 fps=0.6 q=39.7 size=     512KiB time=00:00:02.03 bitrate=2062.9kbits/s speed=0.0198x elapsed=0:01:42.75    \nframe=   63 fps=0.6 q=39.7 size=     512KiB time=00:00:02.03 bitrate=2062.9kbits/s speed=0.0197x elapsed=0:01:43.28    \nframe=   65 fps=0.6 q=41.4 size=     512KiB time=00:00:02.10 bitrate=1997.5kbits/s speed=0.0202x elapsed=0:01:43.81    \nframe=   65 fps=0.6 q=41.4 size=     512KiB time=00:00:02.10 bitrate=1997.5kbits/s speed=0.0201x elapsed=0:01:44.33    \nframe=   65 fps=0.6 q=41.4 size=     512KiB time=00:00:02.10 bitrate=1997.5kbits/s speed=0.02x elapsed=0:01:44.84    \nframe=   65 fps=0.6 q=41.4 size=     512KiB time=00:00:02.10 bitrate=1997.5kbits/s speed=0.0199x elapsed=0:01:45.36    \nframe=   65 fps=0.6 q=41.4 size=     512KiB time=00:00:02.10 bitrate=1997.5kbits/s speed=0.0198x elapsed=0:01:45.88    \nframe=   65 fps=0.6 q=41.4 size=     512KiB time=00:00:02.10 bitrate=1997.5kbits/s speed=0.0197x elapsed=0:01:46.41    \nframe=   66 fps=0.6 q=38.4 size=     512KiB time=00:00:02.13 bitrate=1966.2kbits/s speed=0.0199x elapsed=0:01:46.93    \nframe=   66 fps=0.6 q=38.4 size=     512KiB time=00:00:02.13 bitrate=1966.2kbits/s speed=0.0198x elapsed=0:01:47.48    \nframe=   66 fps=0.6 q=38.4 size=     512KiB time=00:00:02.13 bitrate=1966.2kbits/s speed=0.0197x elapsed=0:01:48.03    \nframe=   66 fps=0.6 q=38.4 size=     512KiB time=00:00:02.13 bitrate=1966.2kbits/s speed=0.0196x elapsed=0:01:48.57    \nframe=   67 fps=0.6 q=39.8 size=     512KiB time=00:00:02.16 bitrate=1936.0kbits/s speed=0.0199x elapsed=0:01:49.08    \nframe=   67 fps=0.6 q=39.8 size=     512KiB time=00:00:02.16 bitrate=1936.0kbits/s speed=0.0198x elapsed=0:01:49.61    \nframe=   68 fps=0.6 q=41.4 size=     512KiB time=00:00:02.20 bitrate=1906.7kbits/s speed=0.02x elapsed=0:01:50.12    \nframe=   68 fps=0.6 q=41.4 size=     512KiB time=00:00:02.20 bitrate=1906.7kbits/s speed=0.0199x elapsed=0:01:50.66    \nframe=   68 fps=0.6 q=41.4 size=     512KiB time=00:00:02.20 bitrate=1906.7kbits/s speed=0.0198x elapsed=0:01:51.19    \nframe=   68 fps=0.6 q=41.4 size=     512KiB time=00:00:02.20 bitrate=1906.7kbits/s speed=0.0197x elapsed=0:01:51.72    \nframe=   68 fps=0.6 q=41.4 size=     512KiB time=00:00:02.20 bitrate=1906.7kbits/s speed=0.0196x elapsed=0:01:52.25    \nframe=   68 fps=0.6 q=41.4 size=     512KiB time=00:00:02.20 bitrate=1906.7kbits/s speed=0.0195x elapsed=0:01:52.78    \nframe=   69 fps=0.6 q=38.1 size=     512KiB time=00:00:02.23 bitrate=1878.2kbits/s speed=0.0197x elapsed=0:01:53.30    \nframe=   69 fps=0.6 q=38.1 size=     512KiB time=00:00:02.23 bitrate=1878.2kbits/s speed=0.0196x elapsed=0:01:53.82    \nframe=   69 fps=0.6 q=38.1 size=     512KiB time=00:00:02.23 bitrate=1878.2kbits/s speed=0.0195x elapsed=0:01:54.35    \nframe=   70 fps=0.6 q=39.4 size=     512KiB time=00:00:02.26 bitrate=1850.6kbits/s speed=0.0197x elapsed=0:01:54.88    \nframe=   70 fps=0.6 q=39.4 size=     512KiB time=00:00:02.26 bitrate=1850.6kbits/s speed=0.0196x elapsed=0:01:55.40    \nframe=   70 fps=0.6 q=39.4 size=     512KiB time=00:00:02.26 bitrate=1850.6kbits/s speed=0.0196x elapsed=0:01:55.93    \nframe=   70 fps=0.6 q=39.4 size=     512KiB time=00:00:02.26 bitrate=1850.6kbits/s speed=0.0195x elapsed=0:01:56.44    \nframe=   70 fps=0.6 q=39.4 size=     512KiB time=00:00:02.26 bitrate=1850.6kbits/s speed=0.0194x elapsed=0:01:56.96    \nframe=   71 fps=0.6 q=41.6 size=     512KiB time=00:00:02.30 bitrate=1823.8kbits/s speed=0.0196x elapsed=0:01:57.47    \nframe=   72 fps=0.6 q=37.7 size=     512KiB time=00:00:02.33 bitrate=1797.7kbits/s speed=0.0198x elapsed=0:01:58.00    \nframe=   72 fps=0.6 q=37.7 size=     512KiB time=00:00:02.33 bitrate=1797.7kbits/s speed=0.0197x elapsed=0:01:58.52    \nframe=   72 fps=0.6 q=37.7 size=     512KiB time=00:00:02.33 bitrate=1797.7kbits/s speed=0.0196x elapsed=0:01:59.03    \nframe=   72 fps=0.6 q=37.7 size=     512KiB time=00:00:02.33 bitrate=1797.7kbits/s speed=0.0195x elapsed=0:01:59.56    \nframe=   73 fps=0.6 q=39.4 size=     512KiB time=00:00:02.36 bitrate=1772.4kbits/s speed=0.0197x elapsed=0:02:00.08    \nframe=   74 fps=0.6 q=41.7 size=     512KiB time=00:00:02.40 bitrate=1747.8kbits/s speed=0.0199x elapsed=0:02:00.60    \nframe=   74 fps=0.6 q=41.7 size=     512KiB time=00:00:02.40 bitrate=1747.8kbits/s speed=0.0198x elapsed=0:02:01.12    \nframe=   75 fps=0.6 q=41.7 size=     512KiB time=00:00:02.43 bitrate=1723.8kbits/s speed=0.02x elapsed=0:02:01.63    \nframe=   75 fps=0.6 q=41.7 size=     512KiB time=00:00:02.43 bitrate=1723.8kbits/s speed=0.0199x elapsed=0:02:02.15    \nframe=   76 fps=0.6 q=38.3 size=     512KiB time=00:00:02.46 bitrate=1700.5kbits/s speed=0.0201x elapsed=0:02:02.66    \nframe=   76 fps=0.6 q=38.3 size=     512KiB time=00:00:02.46 bitrate=1700.5kbits/s speed=0.02x elapsed=0:02:03.18    \nframe=   76 fps=0.6 q=38.3 size=     512KiB time=00:00:02.46 bitrate=1700.5kbits/s speed=0.0199x elapsed=0:02:03.69    \nframe=   76 fps=0.6 q=38.3 size=     512KiB time=00:00:02.46 bitrate=1700.5kbits/s speed=0.0199x elapsed=0:02:04.23    \nframe=   76 fps=0.6 q=38.3 size=     512KiB time=00:00:02.46 bitrate=1700.5kbits/s speed=0.0198x elapsed=0:02:04.78    \nframe=   77 fps=0.6 q=40.0 size=     512KiB time=00:00:02.50 bitrate=1677.9kbits/s speed=0.02x elapsed=0:02:05.30    \nframe=   77 fps=0.6 q=40.0 size=     512KiB time=00:00:02.50 bitrate=1677.9kbits/s speed=0.0199x elapsed=0:02:05.82    \nframe=   77 fps=0.6 q=40.0 size=     512KiB time=00:00:02.50 bitrate=1677.9kbits/s speed=0.0198x elapsed=0:02:06.34    \nframe=   79 fps=0.6 q=42.2 size=     512KiB time=00:00:02.56 bitrate=1634.3kbits/s speed=0.0202x elapsed=0:02:06.85    \nframe=   79 fps=0.6 q=42.2 size=     512KiB time=00:00:02.56 bitrate=1634.3kbits/s speed=0.0202x elapsed=0:02:07.37    \nframe=   79 fps=0.6 q=42.2 size=     512KiB time=00:00:02.56 bitrate=1634.3kbits/s speed=0.0201x elapsed=0:02:07.89    \nframe=   79 fps=0.6 q=42.2 size=     512KiB time=00:00:02.56 bitrate=1634.3kbits/s speed=0.02x elapsed=0:02:08.44    \nframe=   79 fps=0.6 q=42.2 size=     512KiB time=00:00:02.56 bitrate=1634.3kbits/s speed=0.0199x elapsed=0:02:08.97    \nframe=   80 fps=0.6 q=37.8 size=     512KiB time=00:00:02.60 bitrate=1613.3kbits/s speed=0.0201x elapsed=0:02:09.50    \nframe=   80 fps=0.6 q=37.8 size=     512KiB time=00:00:02.60 bitrate=1613.3kbits/s speed=0.02x elapsed=0:02:10.02    \nframe=   80 fps=0.6 q=37.8 size=     512KiB time=00:00:02.60 bitrate=1613.3kbits/s speed=0.0199x elapsed=0:02:10.54    \nframe=   80 fps=0.6 q=37.8 size=     512KiB time=00:00:02.60 bitrate=1613.3kbits/s speed=0.0198x elapsed=0:02:11.05    \nframe=   81 fps=0.6 q=39.8 size=     512KiB time=00:00:02.63 bitrate=1592.9kbits/s speed=0.02x elapsed=0:02:11.58    \nframe=   81 fps=0.6 q=39.8 size=     512KiB time=00:00:02.63 bitrate=1592.9kbits/s speed=0.0199x elapsed=0:02:12.10    \nframe=   82 fps=0.6 q=41.4 size=     512KiB time=00:00:02.66 bitrate=1573.0kbits/s speed=0.0201x elapsed=0:02:12.63    \nframe=   83 fps=0.6 q=41.4 size=     512KiB time=00:00:02.70 bitrate=1553.6kbits/s speed=0.0203x elapsed=0:02:13.14    \nframe=   83 fps=0.6 q=41.4 size=     512KiB time=00:00:02.70 bitrate=1553.6kbits/s speed=0.0202x elapsed=0:02:13.66    \nframe=   83 fps=0.6 q=41.4 size=     512KiB time=00:00:02.70 bitrate=1553.6kbits/s speed=0.0201x elapsed=0:02:14.18    \nframe=   83 fps=0.6 q=41.4 size=     512KiB time=00:00:02.70 bitrate=1553.6kbits/s speed=0.02x elapsed=0:02:14.70    \nframe=   83 fps=0.6 q=41.4 size=     512KiB time=00:00:02.70 bitrate=1553.6kbits/s speed=0.02x elapsed=0:02:15.20    \nframe=   84 fps=0.6 q=37.7 size=     512KiB time=00:00:02.73 bitrate=1534.6kbits/s speed=0.0201x elapsed=0:02:15.73    \nframe=   84 fps=0.6 q=37.7 size=     512KiB time=00:00:02.73 bitrate=1534.6kbits/s speed=0.0201x elapsed=0:02:16.24    \nframe=   84 fps=0.6 q=37.7 size=     512KiB time=00:00:02.73 bitrate=1534.6kbits/s speed=0.02x elapsed=0:02:16.78    \nframe=   85 fps=0.6 q=38.8 size=     512KiB time=00:00:02.76 bitrate=1516.1kbits/s speed=0.0201x elapsed=0:02:17.31    \nframe=   85 fps=0.6 q=38.8 size=     512KiB time=00:00:02.76 bitrate=1516.1kbits/s speed=0.0201x elapsed=0:02:17.83    \nframe=   85 fps=0.6 q=38.8 size=     512KiB time=00:00:02.76 bitrate=1516.1kbits/s speed=0.02x elapsed=0:02:18.35    \nframe=   86 fps=0.6 q=41.4 size=     512KiB time=00:00:02.80 bitrate=1498.1kbits/s speed=0.0202x elapsed=0:02:18.86    \nframe=   86 fps=0.6 q=41.4 size=     512KiB time=00:00:02.80 bitrate=1498.1kbits/s speed=0.0201x elapsed=0:02:19.38    \nframe=   88 fps=0.6 q=41.4 size=     512KiB time=00:00:02.86 bitrate=1463.3kbits/s speed=0.0205x elapsed=0:02:19.90    \nframe=   88 fps=0.6 q=41.4 size=     512KiB time=00:00:02.86 bitrate=1463.3kbits/s speed=0.0204x elapsed=0:02:20.46    \nframe=   88 fps=0.6 q=41.4 size=     512KiB time=00:00:02.86 bitrate=1463.3kbits/s speed=0.0203x elapsed=0:02:20.97    \nframe=   89 fps=0.6 q=36.3 size=     512KiB time=00:00:02.90 bitrate=1446.4kbits/s speed=0.0205x elapsed=0:02:21.49    \nframe=   89 fps=0.6 q=36.3 size=     512KiB time=00:00:02.90 bitrate=1446.4kbits/s speed=0.0204x elapsed=0:02:22.00    \nframe=   89 fps=0.6 q=36.3 size=     512KiB time=00:00:02.90 bitrate=1446.4kbits/s speed=0.0203x elapsed=0:02:22.54    \nframe=   90 fps=0.6 q=41.3 size=     512KiB time=00:00:02.93 bitrate=1430.0kbits/s speed=0.0205x elapsed=0:02:23.08    \nframe=   90 fps=0.6 q=41.3 size=     512KiB time=00:00:02.93 bitrate=1430.0kbits/s speed=0.0204x elapsed=0:02:23.61    \nframe=   90 fps=0.6 q=41.3 size=     512KiB time=00:00:02.93 bitrate=1430.0kbits/s speed=0.0204x elapsed=0:02:24.11    \nframe=   90 fps=0.6 q=41.3 size=     512KiB time=00:00:02.93 bitrate=1430.0kbits/s speed=0.0203x elapsed=0:02:24.64    \nframe=   92 fps=0.6 q=42.3 size=     512KiB time=00:00:03.00 bitrate=1398.2kbits/s speed=0.0207x elapsed=0:02:25.16    \nframe=   93 fps=0.6 q=42.1 size=     512KiB time=00:00:03.03 bitrate=1382.9kbits/s speed=0.0208x elapsed=0:02:25.68    \nframe=   93 fps=0.6 q=42.1 size=     512KiB time=00:00:03.03 bitrate=1382.9kbits/s speed=0.0207x elapsed=0:02:26.20    \nframe=   93 fps=0.6 q=42.1 size=     512KiB time=00:00:03.03 bitrate=1382.9kbits/s speed=0.0207x elapsed=0:02:26.73    \nframe=   94 fps=0.6 q=38.6 size=     512KiB time=00:00:03.06 bitrate=1367.8kbits/s speed=0.0208x elapsed=0:02:27.24    \nframe=   94 fps=0.6 q=38.6 size=     512KiB time=00:00:03.06 bitrate=1367.8kbits/s speed=0.0208x elapsed=0:02:27.77    \nframe=   94 fps=0.6 q=38.6 size=     512KiB time=00:00:03.06 bitrate=1367.8kbits/s speed=0.0207x elapsed=0:02:28.31    \nframe=   94 fps=0.6 q=38.6 size=     512KiB time=00:00:03.06 bitrate=1367.8kbits/s speed=0.0206x elapsed=0:02:28.87    \nframe=   94 fps=0.6 q=38.6 size=     512KiB time=00:00:03.06 bitrate=1367.8kbits/s speed=0.0205x elapsed=0:02:29.39    \nframe=   94 fps=0.6 q=38.6 size=     512KiB time=00:00:03.06 bitrate=1367.8kbits/s speed=0.0205x elapsed=0:02:29.94    \nframe=   95 fps=0.6 q=40.5 size=     768KiB time=00:00:03.10 bitrate=2029.6kbits/s speed=0.0206x elapsed=0:02:30.46    \nframe=   95 fps=0.6 q=40.5 size=     768KiB time=00:00:03.10 bitrate=2029.6kbits/s speed=0.0205x elapsed=0:02:30.98    \nframe=   95 fps=0.6 q=40.5 size=     768KiB time=00:00:03.10 bitrate=2029.6kbits/s speed=0.0205x elapsed=0:02:31.50    \nframe=   95 fps=0.6 q=40.5 size=     768KiB time=00:00:03.10 bitrate=2029.6kbits/s speed=0.0204x elapsed=0:02:32.02    \nframe=   96 fps=0.6 q=42.2 size=     768KiB time=00:00:03.13 bitrate=2008.0kbits/s speed=0.0205x elapsed=0:02:32.54    \nframe=   97 fps=0.6 q=42.5 size=     768KiB time=00:00:03.16 bitrate=1986.9kbits/s speed=0.0207x elapsed=0:02:33.07    \nframe=   97 fps=0.6 q=42.5 size=     768KiB time=00:00:03.16 bitrate=1986.9kbits/s speed=0.0206x elapsed=0:02:33.58    \nframe=   97 fps=0.6 q=42.5 size=     768KiB time=00:00:03.16 bitrate=1986.9kbits/s speed=0.0205x elapsed=0:02:34.09    \nframe=   98 fps=0.6 q=38.1 size=     768KiB time=00:00:03.20 bitrate=1966.2kbits/s speed=0.0207x elapsed=0:02:34.62    \nframe=   99 fps=0.6 q=40.9 size=     768KiB time=00:00:03.23 bitrate=1945.9kbits/s speed=0.0208x elapsed=0:02:35.14    \nframe=  100 fps=0.6 q=42.6 size=     768KiB time=00:00:03.26 bitrate=1926.1kbits/s speed=0.021x elapsed=0:02:35.65    \nframe=  100 fps=0.6 q=42.6 size=     768KiB time=00:00:03.26 bitrate=1926.1kbits/s speed=0.0209x elapsed=0:02:36.17    \nframe=  101 fps=0.6 q=38.0 size=     768KiB time=00:00:03.30 bitrate=1906.6kbits/s speed=0.0211x elapsed=0:02:36.69    \nframe=  101 fps=0.6 q=38.0 size=     768KiB time=00:00:03.30 bitrate=1906.6kbits/s speed=0.021x elapsed=0:02:37.20    \nframe=  102 fps=0.6 q=40.8 size=     768KiB time=00:00:03.33 bitrate=1887.5kbits/s speed=0.0211x elapsed=0:02:37.73    \nframe=  102 fps=0.6 q=40.8 size=     768KiB time=00:00:03.33 bitrate=1887.5kbits/s speed=0.0211x elapsed=0:02:38.23    \nframe=  104 fps=0.7 q=42.7 size=     768KiB time=00:00:03.40 bitrate=1850.5kbits/s speed=0.0214x elapsed=0:02:38.75    \nframe=  104 fps=0.7 q=42.7 size=     768KiB time=00:00:03.40 bitrate=1850.5kbits/s speed=0.0213x elapsed=0:02:39.27    \nframe=  104 fps=0.7 q=42.7 size=     768KiB time=00:00:03.40 bitrate=1850.5kbits/s speed=0.0213x elapsed=0:02:39.79    \nframe=  105 fps=0.7 q=38.8 size=     768KiB time=00:00:03.43 bitrate=1832.6kbits/s speed=0.0214x elapsed=0:02:40.30    \nframe=  105 fps=0.7 q=38.8 size=     768KiB time=00:00:03.43 bitrate=1832.6kbits/s speed=0.0213x elapsed=0:02:40.82    \nframe=  106 fps=0.7 q=40.9 size=     768KiB time=00:00:03.46 bitrate=1814.9kbits/s speed=0.0215x elapsed=0:02:41.34    \nframe=  108 fps=0.7 q=42.9 size=     768KiB time=00:00:03.53 bitrate=1780.7kbits/s speed=0.0218x elapsed=0:02:41.84    \nframe=  108 fps=0.7 q=42.9 size=     768KiB time=00:00:03.53 bitrate=1780.7kbits/s speed=0.0218x elapsed=0:02:42.36    \nframe=  108 fps=0.7 q=42.9 size=     768KiB time=00:00:03.53 bitrate=1780.7kbits/s speed=0.0217x elapsed=0:02:42.89    \nframe=  108 fps=0.7 q=42.9 size=     768KiB time=00:00:03.53 bitrate=1780.7kbits/s speed=0.0216x elapsed=0:02:43.41    \nframe=  109 fps=0.7 q=38.2 size=     768KiB time=00:00:03.56 bitrate=1764.1kbits/s speed=0.0218x elapsed=0:02:43.98    \nframe=  109 fps=0.7 q=38.2 size=     768KiB time=00:00:03.56 bitrate=1764.1kbits/s speed=0.0217x elapsed=0:02:44.50    \nframe=  109 fps=0.7 q=38.2 size=     768KiB time=00:00:03.56 bitrate=1764.1kbits/s speed=0.0216x elapsed=0:02:45.03    \nframe=  109 fps=0.7 q=38.2 size=     768KiB time=00:00:03.56 bitrate=1764.1kbits/s speed=0.0215x elapsed=0:02:45.57    \nframe=  109 fps=0.7 q=38.2 size=     768KiB time=00:00:03.56 bitrate=1764.1kbits/s speed=0.0215x elapsed=0:02:46.09    \nframe=  109 fps=0.7 q=38.2 size=     768KiB time=00:00:03.56 bitrate=1764.1kbits/s speed=0.0214x elapsed=0:02:46.62    \nframe=  110 fps=0.7 q=41.4 size=     768KiB time=00:00:03.60 bitrate=1747.7kbits/s speed=0.0215x elapsed=0:02:47.14    \nframe=  111 fps=0.7 q=42.7 size=     768KiB time=00:00:03.63 bitrate=1731.7kbits/s speed=0.0217x elapsed=0:02:47.69    \nframe=  111 fps=0.7 q=42.7 size=     768KiB time=00:00:03.63 bitrate=1731.7kbits/s speed=0.0216x elapsed=0:02:48.24    \nframe=  111 fps=0.7 q=42.7 size=     768KiB time=00:00:03.63 bitrate=1731.7kbits/s speed=0.0215x elapsed=0:02:48.76    \nframe=  112 fps=0.7 q=38.1 size=     768KiB time=00:00:03.66 bitrate=1715.9kbits/s speed=0.0217x elapsed=0:02:49.28    \nframe=  112 fps=0.7 q=38.1 size=     768KiB time=00:00:03.66 bitrate=1715.9kbits/s speed=0.0216x elapsed=0:02:49.79    \nframe=  112 fps=0.7 q=38.1 size=     768KiB time=00:00:03.66 bitrate=1715.9kbits/s speed=0.0215x elapsed=0:02:50.31    \nframe=  112 fps=0.7 q=38.1 size=     768KiB time=00:00:03.66 bitrate=1715.9kbits/s speed=0.0215x elapsed=0:02:50.85    \nframe=  112 fps=0.7 q=38.1 size=     768KiB time=00:00:03.66 bitrate=1715.9kbits/s speed=0.0214x elapsed=0:02:51.36    \nframe=  112 fps=0.7 q=38.1 size=     768KiB time=00:00:03.66 bitrate=1715.9kbits/s speed=0.0213x elapsed=0:02:51.88    \nframe=  113 fps=0.7 q=40.6 size=     768KiB time=00:00:03.70 bitrate=1700.5kbits/s speed=0.0215x elapsed=0:02:52.40    \nframe=  113 fps=0.7 q=40.6 size=     768KiB time=00:00:03.70 bitrate=1700.5kbits/s speed=0.0214x elapsed=0:02:52.93    \nframe=  113 fps=0.7 q=40.6 size=     768KiB time=00:00:03.70 bitrate=1700.5kbits/s speed=0.0213x elapsed=0:02:53.44    \nframe=  113 fps=0.6 q=40.6 size=     768KiB time=00:00:03.70 bitrate=1700.5kbits/s speed=0.0213x elapsed=0:02:53.96    \nframe=  115 fps=0.7 q=42.5 size=     768KiB time=00:00:03.76 bitrate=1670.4kbits/s speed=0.0216x elapsed=0:02:54.47    \nframe=  115 fps=0.7 q=42.5 size=     768KiB time=00:00:03.76 bitrate=1670.4kbits/s speed=0.0215x elapsed=0:02:54.98    \nframe=  115 fps=0.7 q=42.5 size=     768KiB time=00:00:03.76 bitrate=1670.4kbits/s speed=0.0215x elapsed=0:02:55.51    \nframe=  115 fps=0.7 q=42.5 size=     768KiB time=00:00:03.76 bitrate=1670.4kbits/s speed=0.0214x elapsed=0:02:56.04    \nframe=  115 fps=0.7 q=42.5 size=     768KiB time=00:00:03.76 bitrate=1670.4kbits/s speed=0.0213x elapsed=0:02:56.58    \nframe=  115 fps=0.6 q=42.5 size=     768KiB time=00:00:03.76 bitrate=1670.4kbits/s speed=0.0213x elapsed=0:02:57.12    \nframe=  117 fps=0.7 q=41.2 size=     768KiB time=00:00:03.83 bitrate=1641.3kbits/s speed=0.0216x elapsed=0:02:57.63    \nframe=  117 fps=0.7 q=41.2 size=     768KiB time=00:00:03.83 bitrate=1641.3kbits/s speed=0.0215x elapsed=0:02:58.16    \nframe=  117 fps=0.7 q=41.2 size=     768KiB time=00:00:03.83 bitrate=1641.3kbits/s speed=0.0215x elapsed=0:02:58.69    \nframe=  117 fps=0.7 q=41.2 size=     768KiB time=00:00:03.83 bitrate=1641.3kbits/s speed=0.0214x elapsed=0:02:59.21    \nframe=  118 fps=0.7 q=42.5 size=     768KiB time=00:00:03.86 bitrate=1627.2kbits/s speed=0.0215x elapsed=0:02:59.73    \nframe=  118 fps=0.7 q=42.5 size=     768KiB time=00:00:03.86 bitrate=1627.2kbits/s speed=0.0215x elapsed=0:03:00.24    \nframe=  118 fps=0.7 q=42.5 size=     768KiB time=00:00:03.86 bitrate=1627.2kbits/s speed=0.0214x elapsed=0:03:00.78    \nframe=  119 fps=0.7 q=37.9 size=     768KiB time=00:00:03.90 bitrate=1613.3kbits/s speed=0.0215x elapsed=0:03:01.28    \nframe=  119 fps=0.7 q=37.9 size=     768KiB time=00:00:03.90 bitrate=1613.3kbits/s speed=0.0215x elapsed=0:03:01.81    \nframe=  119 fps=0.7 q=37.9 size=     768KiB time=00:00:03.90 bitrate=1613.3kbits/s speed=0.0214x elapsed=0:03:02.32    \nframe=  119 fps=0.7 q=37.9 size=     768KiB time=00:00:03.90 bitrate=1613.3kbits/s speed=0.0213x elapsed=0:03:02.84    \nframe=  120 fps=0.7 q=40.9 size=     768KiB time=00:00:03.93 bitrate=1599.6kbits/s speed=0.0214x elapsed=0:03:03.39    \nframe=  120 fps=0.7 q=40.9 size=     768KiB time=00:00:03.93 bitrate=1599.6kbits/s speed=0.0214x elapsed=0:03:04.00    \nframe=  121 fps=0.7 q=42.7 size=     768KiB time=00:00:03.96 bitrate=1586.2kbits/s speed=0.0215x elapsed=0:03:04.54    \nframe=  121 fps=0.7 q=42.7 size=     768KiB time=00:00:03.96 bitrate=1586.2kbits/s speed=0.0214x elapsed=0:03:05.08    \nframe=  122 fps=0.7 q=42.4 size=     768KiB time=00:00:04.00 bitrate=1573.0kbits/s speed=0.0216x elapsed=0:03:05.60    \nframe=  122 fps=0.7 q=42.4 size=     768KiB time=00:00:04.00 bitrate=1573.0kbits/s speed=0.0215x elapsed=0:03:06.12    \nframe=  122 fps=0.7 q=42.4 size=     768KiB time=00:00:04.00 bitrate=1573.0kbits/s speed=0.0214x elapsed=0:03:06.63    \nframe=  123 fps=0.7 q=37.5 size=     768KiB time=00:00:04.03 bitrate=1560.0kbits/s speed=0.0215x elapsed=0:03:07.16    \nframe=  123 fps=0.7 q=37.5 size=     768KiB time=00:00:04.03 bitrate=1560.0kbits/s speed=0.0215x elapsed=0:03:07.72    \nframe=  123 fps=0.7 q=37.5 size=     768KiB time=00:00:04.03 bitrate=1560.0kbits/s speed=0.0214x elapsed=0:03:08.26    \nframe=  123 fps=0.7 q=37.5 size=     768KiB time=00:00:04.03 bitrate=1560.0kbits/s speed=0.0214x elapsed=0:03:08.86    \nframe=  123 fps=0.6 q=37.5 size=     768KiB time=00:00:04.03 bitrate=1560.0kbits/s speed=0.0213x elapsed=0:03:09.42    \nframe=  123 fps=0.6 q=37.5 size=     768KiB time=00:00:04.03 bitrate=1560.0kbits/s speed=0.0212x elapsed=0:03:10.04    \nframe=  123 fps=0.6 q=37.5 size=     768KiB time=00:00:04.03 bitrate=1560.0kbits/s speed=0.0212x elapsed=0:03:10.63    \nframe=  123 fps=0.6 q=37.5 size=     768KiB time=00:00:04.03 bitrate=1560.0kbits/s speed=0.0211x elapsed=0:03:11.19    \nframe=  123 fps=0.6 q=37.5 size=     768KiB time=00:00:04.03 bitrate=1560.0kbits/s speed=0.021x elapsed=0:03:11.78    \nframe=  123 fps=0.6 q=37.5 size=     768KiB time=00:00:04.03 bitrate=1560.0kbits/s speed=0.021x elapsed=0:03:12.35    \nframe=  124 fps=0.6 q=40.8 size=    1024KiB time=00:00:04.06 bitrate=2062.9kbits/s speed=0.0211x elapsed=0:03:12.92    \nframe=  124 fps=0.6 q=40.8 size=    1024KiB time=00:00:04.06 bitrate=2062.9kbits/s speed=0.021x elapsed=0:03:13.49    \nframe=  124 fps=0.6 q=40.8 size=    1024KiB time=00:00:04.06 bitrate=2062.9kbits/s speed=0.021x elapsed=0:03:14.06    \nframe=  124 fps=0.6 q=40.8 size=    1024KiB time=00:00:04.06 bitrate=2062.9kbits/s speed=0.0209x elapsed=0:03:14.58    \nframe=  124 fps=0.6 q=40.8 size=    1024KiB time=00:00:04.06 bitrate=2062.9kbits/s speed=0.0208x elapsed=0:03:15.10    \nframe=  124 fps=0.6 q=40.8 size=    1024KiB time=00:00:04.06 bitrate=2062.9kbits/s speed=0.0208x elapsed=0:03:15.62    \nframe=  126 fps=0.6 q=42.6 size=    1024KiB time=00:00:04.13 bitrate=2029.6kbits/s speed=0.0211x elapsed=0:03:16.15    \nframe=  127 fps=0.6 q=42.7 size=    1024KiB time=00:00:04.16 bitrate=2013.4kbits/s speed=0.0212x elapsed=0:03:16.70    \nframe=  127 fps=0.6 q=42.7 size=    1024KiB time=00:00:04.16 bitrate=2013.4kbits/s speed=0.0211x elapsed=0:03:17.22    \nframe=  127 fps=0.6 q=42.7 size=    1024KiB time=00:00:04.16 bitrate=2013.4kbits/s speed=0.0211x elapsed=0:03:17.74    \nframe=  127 fps=0.6 q=42.7 size=    1024KiB time=00:00:04.16 bitrate=2013.4kbits/s speed=0.021x elapsed=0:03:18.26    \nframe=  127 fps=0.6 q=42.7 size=    1024KiB time=00:00:04.16 bitrate=2013.4kbits/s speed=0.021x elapsed=0:03:18.77    \nframe=  127 fps=0.6 q=42.7 size=    1024KiB time=00:00:04.16 bitrate=2013.4kbits/s speed=0.0209x elapsed=0:03:19.30    \nframe=  127 fps=0.6 q=42.7 size=    1024KiB time=00:00:04.16 bitrate=2013.4kbits/s speed=0.0209x elapsed=0:03:19.82    \nframe=  127 fps=0.6 q=42.7 size=    1024KiB time=00:00:04.16 bitrate=2013.4kbits/s speed=0.0208x elapsed=0:03:20.35    \nframe=  128 fps=0.6 q=38.0 size=    1024KiB time=00:00:04.20 bitrate=1997.4kbits/s speed=0.0209x elapsed=0:03:20.92    \nframe=  128 fps=0.6 q=38.0 size=    1024KiB time=00:00:04.20 bitrate=1997.4kbits/s speed=0.0208x elapsed=0:03:21.45    \nframe=  128 fps=0.6 q=38.0 size=    1024KiB time=00:00:04.20 bitrate=1997.4kbits/s speed=0.0208x elapsed=0:03:21.96    \nframe=  129 fps=0.6 q=39.5 size=    1024KiB time=00:00:04.23 bitrate=1981.6kbits/s speed=0.0209x elapsed=0:03:22.47    \nframe=  129 fps=0.6 q=39.5 size=    1024KiB time=00:00:04.23 bitrate=1981.6kbits/s speed=0.0209x elapsed=0:03:22.99    \nframe=  129 fps=0.6 q=39.5 size=    1024KiB time=00:00:04.23 bitrate=1981.6kbits/s speed=0.0208x elapsed=0:03:23.50    \nframe=  129 fps=0.6 q=39.5 size=    1024KiB time=00:00:04.23 bitrate=1981.6kbits/s speed=0.0207x elapsed=0:03:24.02    \nframe=  131 fps=0.6 q=42.4 size=    1024KiB time=00:00:04.30 bitrate=1950.9kbits/s speed=0.021x elapsed=0:03:24.53    \nframe=  132 fps=0.6 q=42.4 size=    1024KiB time=00:00:04.33 bitrate=1935.9kbits/s speed=0.0211x elapsed=0:03:25.05    \nframe=  132 fps=0.6 q=42.4 size=    1024KiB time=00:00:04.33 bitrate=1935.9kbits/s speed=0.0211x elapsed=0:03:25.58    \nframe=  132 fps=0.6 q=42.4 size=    1024KiB time=00:00:04.33 bitrate=1935.9kbits/s speed=0.021x elapsed=0:03:26.11    \nframe=  132 fps=0.6 q=42.4 size=    1024KiB time=00:00:04.33 bitrate=1935.9kbits/s speed=0.021x elapsed=0:03:26.63    \nframe=  132 fps=0.6 q=42.4 size=    1024KiB time=00:00:04.33 bitrate=1935.9kbits/s speed=0.0209x elapsed=0:03:27.16    \nframe=  133 fps=0.6 q=38.6 size=    1024KiB time=00:00:04.36 bitrate=1921.1kbits/s speed=0.021x elapsed=0:03:27.68    \nframe=  133 fps=0.6 q=38.6 size=    1024KiB time=00:00:04.36 bitrate=1921.1kbits/s speed=0.021x elapsed=0:03:28.21    \nframe=  133 fps=0.6 q=38.6 size=    1024KiB time=00:00:04.36 bitrate=1921.1kbits/s speed=0.0209x elapsed=0:03:28.72    \nframe=  134 fps=0.6 q=41.5 size=    1024KiB time=00:00:04.40 bitrate=1906.6kbits/s speed=0.021x elapsed=0:03:29.24    \nframe=  134 fps=0.6 q=41.5 size=    1024KiB time=00:00:04.40 bitrate=1906.6kbits/s speed=0.021x elapsed=0:03:29.76    \nframe=  135 fps=0.6 q=42.4 size=    1024KiB time=00:00:04.43 bitrate=1892.2kbits/s speed=0.0211x elapsed=0:03:30.27    \nframe=  136 fps=0.6 q=42.6 size=    1024KiB time=00:00:04.46 bitrate=1878.1kbits/s speed=0.0212x elapsed=0:03:30.78    \nframe=  137 fps=0.6 q=42.9 size=    1024KiB time=00:00:04.50 bitrate=1864.2kbits/s speed=0.0213x elapsed=0:03:31.31    \nframe=  137 fps=0.6 q=42.9 size=    1024KiB time=00:00:04.50 bitrate=1864.2kbits/s speed=0.0212x elapsed=0:03:31.84    \nframe=  138 fps=0.6 q=37.5 size=    1024KiB time=00:00:04.53 bitrate=1850.5kbits/s speed=0.0213x elapsed=0:03:32.39    \nframe=  138 fps=0.6 q=37.5 size=    1024KiB time=00:00:04.53 bitrate=1850.5kbits/s speed=0.0213x elapsed=0:03:32.91    \nframe=  138 fps=0.6 q=37.5 size=    1024KiB time=00:00:04.53 bitrate=1850.5kbits/s speed=0.0212x elapsed=0:03:33.42    \nframe=  138 fps=0.6 q=37.5 size=    1024KiB time=00:00:04.53 bitrate=1850.5kbits/s speed=0.0212x elapsed=0:03:33.95    \nframe=  139 fps=0.6 q=40.5 size=    1024KiB time=00:00:04.56 bitrate=1837.0kbits/s speed=0.0213x elapsed=0:03:34.46    \nframe=  139 fps=0.6 q=40.5 size=    1024KiB time=00:00:04.56 bitrate=1837.0kbits/s speed=0.0212x elapsed=0:03:34.99    \nframe=  139 fps=0.6 q=40.5 size=    1024KiB time=00:00:04.56 bitrate=1837.0kbits/s speed=0.0212x elapsed=0:03:35.52    \nframe=  139 fps=0.6 q=40.5 size=    1024KiB time=00:00:04.56 bitrate=1837.0kbits/s speed=0.0211x elapsed=0:03:36.07    \nframe=  140 fps=0.6 q=42.8 size=    1024KiB time=00:00:04.60 bitrate=1823.7kbits/s speed=0.0212x elapsed=0:03:36.59    \nframe=  140 fps=0.6 q=42.8 size=    1024KiB time=00:00:04.60 bitrate=1823.7kbits/s speed=0.0212x elapsed=0:03:37.13    \nframe=  141 fps=0.6 q=42.6 size=    1024KiB time=00:00:04.63 bitrate=1810.6kbits/s speed=0.0213x elapsed=0:03:37.66    \nframe=  142 fps=0.7 q=37.8 size=    1024KiB time=00:00:04.66 bitrate=1797.6kbits/s speed=0.0214x elapsed=0:03:38.19    \nframe=  142 fps=0.6 q=37.8 size=    1024KiB time=00:00:04.66 bitrate=1797.6kbits/s speed=0.0213x elapsed=0:03:38.72    \nframe=  142 fps=0.6 q=37.8 size=    1024KiB time=00:00:04.66 bitrate=1797.6kbits/s speed=0.0213x elapsed=0:03:39.26    \nframe=  142 fps=0.6 q=37.8 size=    1024KiB time=00:00:04.66 bitrate=1797.6kbits/s speed=0.0212x elapsed=0:03:39.81    \nframe=  142 fps=0.6 q=37.8 size=    1024KiB time=00:00:04.66 bitrate=1797.6kbits/s speed=0.0212x elapsed=0:03:40.34    \nframe=  142 fps=0.6 q=37.8 size=    1024KiB time=00:00:04.66 bitrate=1797.6kbits/s speed=0.0211x elapsed=0:03:40.87    \nframe=  142 fps=0.6 q=37.8 size=    1024KiB time=00:00:04.66 bitrate=1797.6kbits/s speed=0.0211x elapsed=0:03:41.40    \nframe=  142 fps=0.6 q=37.8 size=    1024KiB time=00:00:04.66 bitrate=1797.6kbits/s speed=0.021x elapsed=0:03:41.93    \nframe=  143 fps=0.6 q=40.4 size=    1024KiB time=00:00:04.70 bitrate=1784.9kbits/s speed=0.0211x elapsed=0:03:42.46    \nframe=  143 fps=0.6 q=40.4 size=    1024KiB time=00:00:04.70 bitrate=1784.9kbits/s speed=0.0211x elapsed=0:03:42.98    \nframe=  143 fps=0.6 q=40.4 size=    1024KiB time=00:00:04.70 bitrate=1784.9kbits/s speed=0.021x elapsed=0:03:43.53    \nframe=  144 fps=0.6 q=42.4 size=    1024KiB time=00:00:04.73 bitrate=1772.3kbits/s speed=0.0211x elapsed=0:03:44.07    \nframe=  145 fps=0.6 q=42.6 size=    1024KiB time=00:00:04.76 bitrate=1759.9kbits/s speed=0.0212x elapsed=0:03:44.58    \nframe=  145 fps=0.6 q=42.6 size=    1024KiB time=00:00:04.76 bitrate=1759.9kbits/s speed=0.0212x elapsed=0:03:45.11    \nframe=  145 fps=0.6 q=42.6 size=    1024KiB time=00:00:04.76 bitrate=1759.9kbits/s speed=0.0211x elapsed=0:03:45.64    \nframe=  145 fps=0.6 q=42.6 size=    1024KiB time=00:00:04.76 bitrate=1759.9kbits/s speed=0.0211x elapsed=0:03:46.18    \nframe=  146 fps=0.6 q=39.4 size=    1024KiB time=00:00:04.80 bitrate=1747.7kbits/s speed=0.0212x elapsed=0:03:46.70    \nframe=  146 fps=0.6 q=39.4 size=    1024KiB time=00:00:04.80 bitrate=1747.7kbits/s speed=0.0211x elapsed=0:03:47.22    \nframe=  147 fps=0.6 q=41.4 size=    1024KiB time=00:00:04.83 bitrate=1735.6kbits/s speed=0.0212x elapsed=0:03:47.76    \nframe=  147 fps=0.6 q=41.4 size=    1024KiB time=00:00:04.83 bitrate=1735.6kbits/s speed=0.0212x elapsed=0:03:48.30    \nframe=  147 fps=0.6 q=41.4 size=    1024KiB time=00:00:04.83 bitrate=1735.6kbits/s speed=0.0211x elapsed=0:03:48.83    \nframe=  147 fps=0.6 q=41.4 size=    1024KiB time=00:00:04.83 bitrate=1735.6kbits/s speed=0.0211x elapsed=0:03:49.36    \nframe=  147 fps=0.6 q=41.4 size=    1024KiB time=00:00:04.83 bitrate=1735.6kbits/s speed=0.021x elapsed=0:03:49.88    \n[mp4 @ 000001ff52b49740] Starting second pass: moving the moov atom to the beginning of the file\n[out#0/mp4 @ 000001ff52b3abc0] video:1252KiB audio:0KiB subtitle:0KiB other streams:0KiB global headers:2KiB muxing overhead: 0.411361%\nframe=  150 fps=0.7 q=42.2 Lsize=    1257KiB time=00:00:04.93 bitrate=2086.8kbits/s speed=0.0215x elapsed=0:03:49.94    \nx265 [info]: frame I:      1, Avg QP:37.82  kb/s: 4019.76 \nx265 [info]: frame P:     37, Avg QP:37.97  kb/s: 3814.37 \nx265 [info]: frame B:    112, Avg QP:41.40  kb/s: 1449.00 \nx265 [info]: Weighted P-Frames: Y:24.3% UV:18.9%\n\nencoded 150 frames in 229.57s (0.65 fps), 2049.60 kb/s, Avg QP:40.53\n",
  "seconds": 230.346360206604,
  "probe_out": {}
}